# xmcd
#
# Track frame offsets:
#	150
#	10101
#	21128
#	37504
#	48820
#	63525
#	75707
#	87640
#	99133
#	114811
#	131120
#	159105
#	168424
#	180733
#	196269
#	208925
#	223957
#	237464
#	254143
#	263622
#
# Disc length: 3707 seconds
#
# Revision: 1
# Processed by: cddbd v1.5.2PL0 Copyright (c) Steve Scherf et al.
# Submitted via: audiograbber 1.83.01
#
DISCID=0a0e7914
DTITLE=Hohenaschauer Musikanten - Biergriagl Musi
DYEAR=2010
DGENRE=Country
TTITLE0=Hohenaschauer Polka
TTITLE1=Elstätzinger Walzer
TTITLE2=Wiesler Boarisch
TTITLE3=Beim Fallmann Pius
TTITLE4=Kohlbauernbuam
TTITLE5=Pichler Boarisch
TTITLE6=Blumenmädchen ( Walzer)
TTITLE7=Schottisch Nr.5
TTITLE8=D'Reiteralm
TTITLE9=Stephani Walzer
TTITLE10=Almlieder
TTITLE11=Leitner Hochzeitspolka
TTITLE12=Am Grundlsee( Walzer)
TTITLE13=Schrott'n Sepp Boarisch
TTITLE14=Sunnwend Boarischer
TTITLE15=In da Kuchl ( Walzer)
TTITLE16=Zellerwand Marsch
TTITLE17=Käsera Landler
TTITLE18=Magdalena Weis
TTITLE19=Völkl Boarisch
EXTD=
EXTT0=
EXTT1=
EXTT2=
EXTT3=
EXTT4=
EXTT5=
EXTT6=
EXTT7=
EXTT8=
EXTT9=
EXTT10=
EXTT11=
EXTT12=
EXTT13=
EXTT14=
EXTT15=
EXTT16=
EXTT17=
EXTT18=
EXTT19=
PLAYORDER=
